<svg width="50" height="50" viewBox="0 0 50 50" fill="none" xmlns="http://www.w3.org/2000/svg">
<path fill-rule="evenodd" clip-rule="evenodd" d="M26.2376 48.4543L26.2126 48.4585L26.0647 48.5314L26.023 48.5397L25.9939 48.5314L25.8459 48.4564C25.8237 48.4509 25.8071 48.455 25.7959 48.4689L25.7876 48.4897L25.7522 49.3814L25.7626 49.4231L25.7834 49.4502L26.0001 49.6043L26.0314 49.6127L26.0564 49.6043L26.273 49.4502L26.298 49.4168L26.3064 49.3814L26.2709 48.4918C26.2654 48.4696 26.2543 48.4571 26.2376 48.4543ZM26.7876 48.2189L26.7584 48.2231L26.3751 48.4168L26.3543 48.4377L26.348 48.4606L26.3855 49.3564L26.3959 49.3814L26.4126 49.3981L26.8314 49.5897C26.8578 49.5967 26.8779 49.5911 26.8918 49.5731L26.9001 49.5439L26.8293 48.2647C26.8223 48.2384 26.8084 48.2231 26.7876 48.2189ZM25.298 48.2231C25.2888 48.2175 25.2779 48.2157 25.2674 48.218C25.2569 48.2204 25.2477 48.2266 25.2418 48.2356L25.2293 48.2647L25.1584 49.5439C25.1598 49.5689 25.1716 49.5856 25.1939 49.5939L25.2251 49.5897L25.6439 49.396L25.6647 49.3793L25.6709 49.3564L25.7084 48.4606L25.7022 48.4356L25.6814 48.4147L25.298 48.2231Z" fill="#94A3B8"/>
<path fill-rule="evenodd" clip-rule="evenodd" d="M25.0001 4.16675C13.4938 4.16675 4.16675 13.4938 4.16675 25.0001C4.16675 36.5063 13.4938 45.8334 25.0001 45.8334C36.5063 45.8334 45.8334 36.5063 45.8334 25.0001C45.8334 13.4938 36.5063 4.16675 25.0001 4.16675ZM17.7084 19.7917C17.7084 18.8342 17.897 17.886 18.2635 17.0013C18.6299 16.1167 19.167 15.3129 19.8441 14.6358C20.5212 13.9587 21.325 13.4216 22.2097 13.0551C23.0943 12.6887 24.0425 12.5001 25.0001 12.5001C25.9576 12.5001 26.9058 12.6887 27.7905 13.0551C28.6751 13.4216 29.479 13.9587 30.1561 14.6358C30.8332 15.3129 31.3703 16.1167 31.7367 17.0013C32.1031 17.886 32.2917 18.8342 32.2917 19.7917C32.2917 21.7256 31.5235 23.5803 30.1561 24.9477C28.7886 26.3152 26.934 27.0834 25.0001 27.0834C23.0662 27.0834 21.2115 26.3152 19.8441 24.9477C18.4766 23.5803 17.7084 21.7256 17.7084 19.7917ZM38.0376 35.3834C36.4776 37.3446 34.4949 38.9282 32.2374 40.0161C29.98 41.1041 27.506 41.6683 25.0001 41.6668C22.4941 41.6683 20.0202 41.1041 17.7627 40.0161C15.5053 38.9282 13.5226 37.3446 11.9626 35.3834C15.3397 32.9605 19.948 31.2501 25.0001 31.2501C30.0522 31.2501 34.6605 32.9605 38.0376 35.3834Z" fill="#94A3B8"/>
</svg>
