<svg width="21" height="23" viewBox="0 0 21 23" fill="none" xmlns="http://www.w3.org/2000/svg">
<path d="M14.4722 0.75V4.97222M6.02778 0.75V4.97222M10.25 21.8611H9.19444C5.21394 21.8611 3.22317 21.8611 1.98711 20.624C0.751055 19.3869 0.75 17.3972 0.75 13.4167V11.3056C0.75 7.32506 0.75 5.33428 1.98711 4.09822C3.22422 2.86217 5.21394 2.86111 9.19444 2.86111H11.3056C15.2861 2.86111 17.2768 2.86111 18.5129 4.09822C19.7489 5.33533 19.75 7.32506 19.75 11.3056V11.8333M0.75 9.19444H19.75" stroke="#075985" stroke-width="1.5" stroke-linecap="round" stroke-linejoin="round"/>
<path d="M15.5279 21.8611C15.5279 21.8611 19.7501 19.9051 19.7501 16.73C19.7501 15.4834 18.8613 14.4722 17.639 14.4722C16.6394 14.4722 15.9723 14.9071 15.5279 15.7758C15.0835 14.9071 14.4164 14.4722 13.4168 14.4722C12.1944 14.4722 11.3057 15.4834 11.3057 16.73C11.3057 19.9051 15.5279 21.8611 15.5279 21.8611Z" stroke="#075985" stroke-width="1.5" stroke-linecap="round" stroke-linejoin="round"/>
</svg>
