<svg preserveAspectRatio="none" width="100%" height="100%" overflow="visible" style="display: block;" viewBox="0 0 90 33" fill="none" xmlns="http://www.w3.org/2000/svg">
<g id="Frame 4547">
<g id="Frame 4539">
<g id="Vector">
<path d="M37.5 5C40.8152 5 43.9946 6.31696 46.3388 8.66117C48.683 11.0054 50 14.1848 50 17.5C50 20.8152 48.683 23.9946 46.3388 26.3388C43.9946 28.683 40.8152 30 37.5 30C34.1848 30 31.0054 28.683 28.6612 26.3388C26.317 23.9946 25 20.8152 25 17.5C25 14.1848 26.317 11.0054 28.6612 8.66117C31.0054 6.31696 34.1848 5 37.5 5ZM30.4809 25.5817C32.2312 27.1045 34.4305 28.015 36.7451 28.1749V19.3232L30.4809 25.5817ZM38.2549 28.1749C40.5672 28.0147 42.764 27.1042 44.5116 25.5817L38.2549 19.3251V28.1749ZM26.8175 18.2549C26.9792 20.5678 27.8903 22.7649 29.4127 24.5134L35.6749 18.2549H26.8175ZM45.5798 24.5134C47.1034 22.7656 48.0146 20.5681 48.1749 18.2549H39.3232L45.5798 24.5134ZM39.3251 16.7451H48.1768C48.0159 14.4309 47.1048 12.2324 45.5817 10.4828L39.3251 16.7451ZM29.4145 10.4828C27.8921 12.2326 26.9817 14.4312 26.8213 16.7451H35.6749L29.4145 10.4828ZM36.7451 6.8213C34.4309 6.98219 32.2324 7.89328 30.4828 9.41643L36.7451 15.6749V6.8213ZM38.2549 15.6749L44.5134 9.41643C42.7656 7.89285 40.5681 6.98163 38.2549 6.8213V15.6749Z" fill="var(--fill-0, #2D2D2D)"/>
<path d="M38.2549 15.6749L44.5134 9.41643C42.7656 7.89285 40.5681 6.98163 38.2549 6.8213V15.6749Z" fill="#FFD700"/>
<path d="M39.3251 16.7451H48.1768C48.0159 14.4309 47.1048 12.2324 45.5817 10.4828L39.3251 16.7451Z" fill="#FF6DB1"/>
<path d="M45.5798 24.5134C47.1034 22.7656 48.0146 20.5681 48.1749 18.2549H39.3232L45.5798 24.5134Z" fill="#FFD700"/>
<path d="M38.2549 28.1749C40.5672 28.0147 42.764 27.1042 44.5116 25.5817L38.2549 19.3251V28.1749Z" fill="#FF6DB1"/>
<path d="M30.4809 25.5817C32.2312 27.1045 34.4305 28.015 36.7451 28.1749V19.3232L30.4809 25.5817Z" fill="#FFD700"/>
<path d="M26.8175 18.2549C26.9792 20.5678 27.8903 22.7649 29.4127 24.5134L35.6749 18.2549H26.8175Z" fill="#FF6DB1"/>
<path d="M29.4145 10.4828C27.8921 12.2326 26.9817 14.4312 26.8213 16.7451H35.6749L29.4145 10.4828Z" fill="#FFD700"/>
<path d="M36.7451 6.8213C34.4309 6.98219 32.2324 7.89328 30.4828 9.41643L36.7451 15.6749V6.8213Z" fill="#FF6DB1"/>
</g>
<path id="Vector_2" d="M37.5 4.75C37.1685 4.75 36.8505 4.6183 36.6161 4.38388C36.3817 4.14946 36.25 3.83152 36.25 3.5C36.25 3.16848 36.3817 2.85054 36.6161 2.61612C36.8505 2.3817 37.1685 2.25 37.5 2.25C37.8315 2.25 38.1495 2.3817 38.3839 2.61612C38.6183 2.85054 38.75 3.16848 38.75 3.5C38.75 3.66415 38.7177 3.8267 38.6548 3.97835C38.592 4.13001 38.5 4.26781 38.3839 4.38388C38.2678 4.49996 38.13 4.59203 37.9784 4.65485C37.8267 4.71767 37.6642 4.75 37.5 4.75ZM37.5 0C36.5717 0 35.6815 0.368749 35.0251 1.02513C34.3687 1.6815 34 2.57174 34 3.5C34 6.125 37.5 10 37.5 10C37.5 10 41 6.125 41 3.5C41 2.57174 40.6313 1.6815 39.9749 1.02513C39.3185 0.368749 38.4283 0 37.5 0Z" fill="var(--fill-0, #FF6B6B)"/>
</g>
<path id="Vector_3" d="M63.3333 19.8823V29.4118C63.3333 29.8618 63.1733 30.2392 62.8533 30.5442C62.5333 30.8491 62.1378 31.0011 61.6667 31C61.1956 30.9989 60.8 30.8465 60.48 30.5426C60.16 30.2387 60 29.8618 60 29.4118V5.58823C60 5.13824 60.16 4.76129 60.48 4.45741C60.8 4.15353 61.1956 4.00106 61.6667 4H73.625C74.0139 4 74.3611 4.11912 74.6667 4.35735C74.9722 4.59559 75.1667 4.9 75.25 5.27059L75.6667 7.17647H83.3333C83.8055 7.17647 84.2017 7.32894 84.5217 7.63388C84.8417 7.93882 85.0011 8.31576 85 8.7647V21.4706C85 21.9206 84.84 22.2981 84.52 22.603C84.2 22.9079 83.8044 23.0599 83.3333 23.0588H74.7083C74.3194 23.0588 73.9722 22.9397 73.6667 22.7015C73.3611 22.4632 73.1667 22.1588 73.0833 21.7882L72.6667 19.8823H63.3333Z" fill="var(--fill-0, #FF6B6B)"/>
</g>
</svg>
